<svg xmlns="http://www.w3.org/2000/svg" viewBox="0 0 303.77 820.87"><defs><style>.cls-1{fill:#333;}</style></defs><title>Beer_Bottle</title><g id="Layer_2" data-name="Layer 2"><g id="Layer_1-2" data-name="Layer 1"><path id="cap" class="cls-1" d="M95,37a4.88,4.88,0,0,1,1.61,1.16H206.9A4.77,4.77,0,0,1,208.53,37c2.16-1,3.12-2.53,2.58-4L200.71,5c-.73-1.94-4-3.44-8-3.68C183.9.79,167.89,0,151.75,0c-15.75,0-32,.81-40.9,1.33-4.07.24-7.33,1.73-8,3.68L92.42,33C91.88,34.47,92.85,36,95,37Z"/><path id="bottle" class="cls-1" d="M303.7,426.13c0-75.71-7.89-106.74-42.77-134-16.43-12.85-27.25-23.39-34.14-31a39.27,39.27,0,0,1-9.66-28.31C221,155,202.6,67.43,198.63,49.64a3.88,3.88,0,0,1,1.28-3.85H103.58a3.87,3.87,0,0,1,1.34,3.9c-4,17.79-22.34,105.4-18.43,183.17a39.28,39.28,0,0,1-9.64,28.32c-6.89,7.6-17.71,18.16-34.13,31C7.85,319.53,0,350.56,0,426.27,0,433.15.07,775,.07,775S-.11,821,151.93,820.87s151.84-46,151.84-46S303.7,433,303.7,426.13Z"/></g></g></svg>