<svg xmlns="http://www.w3.org/2000/svg" viewBox="0 0 497 735"><defs><style>.cls-1{fill:#333;}.cls-2{fill:#fff;}.cls-3{fill:#e6e7e8;}.cls-4{fill:#d1d1d1;}.cls-5{fill:#ffd800;}</style></defs><title>Beer_Pump</title><g id="Layer_2" data-name="Layer 2"><g id="Layer_1-2" data-name="Layer 1"><path class="cls-1" d="M42,735H455V489.08h42V464.92c0-16.5-22.59-29.92-50.35-29.92H434.34v-.13c0-7.91-10.83-14.34-24.14-14.34H376.38V408c16.33-.79,29.21-8.94,29.21-18.85,0-10.42-14.28-18.91-31.82-18.91h-40.9C317.06,362,308,353.24,305,350.09V331.56h6.48c17.54,0,31.82-8.48,31.82-18.91S329,293.74,311.44,293.74h-.27V276.61h-1.55V227c0-11,8.42-29.14,17.34-48.35,10.3-22.19,21-45.14,21-62.07,0-23.16-24.23-47.09-41.05-60.91a7.08,7.08,0,0,0,1.18-3.82c0-6-8.24-10.91-18.37-10.91h-17v-.18C282.26,36.51,288,29.83,288,22.62,288,10.15,270.93,0,249.94,0s-38.07,10.15-38.07,22.62c0,7.38,5.91,14.1,15.76,18.31H211.29c-10.13,0-18.36,4.9-18.36,10.91A7.19,7.19,0,0,0,194.35,56c-16.72,13.8-40.61,37.56-40.61,60.54,0,16.93,10.66,39.87,21,62.07C183.62,197.85,192,216,192,227v66.75h-6.48c-17.54,0-31.82,8.49-31.82,18.91s14.28,18.91,31.82,18.91H192V350.1c-3,3.14-12,11.89-27.89,20.17H123.23c-17.54,0-31.82,8.49-31.82,18.91,0,9.91,12.88,18.06,29.21,18.85v12.5H86.8c-13.31,0-24.14,6.43-24.14,14.34V435H50.35C22.59,435,0,448.42,0,464.92v24.16H42Z"/><rect class="cls-1" x="260.08" y="402.76" width="101.35" height="23.1"/><rect class="cls-1" x="135.57" y="402.76" width="101.35" height="23.1"/><path class="cls-2" d="M320.33,375.6c-20.25-11.05-29.46-22.27-30-23l-.3-.37v-26H207v26l-.3.37c-.56.69-9.77,11.91-30,23Z"/><path class="cls-2" d="M185.56,302.63c-9.3,0-16.87,4.5-16.87,10s7.57,10,16.87,10H311.44c9.3,0,16.87-4.5,16.87-10s-7.57-10-16.87-10H302.2V303H201v-.38Z"/><path class="cls-1" d="M123.23,399.21H236.92v-7.8c0-3.79,5.2-6.88,11.58-6.88s11.58,3.09,11.58,6.88v7.8H373.77c9.3,0,16.87-4.5,16.87-10s-7.57-10-16.87-10H123.23c-9.3,0-16.87,4.49-16.87,10S113.93,399.21,123.23,399.21Z"/><path class="cls-1" d="M410.2,429.41H260.08v10.92H410.2c5.07,0,9.19-2.45,9.19-5.46S415.27,429.41,410.2,429.41Z"/><path class="cls-1" d="M86.8,429.41c-5.07,0-9.19,2.45-9.19,5.46s4.12,5.46,9.19,5.46H236.92V429.41Z"/><rect class="cls-3" x="206.99" y="285.49" width="89.24" height="13.96"/><path class="cls-1" d="M294.67,281.94V227c0-12.2,8.68-30.91,17.88-50.71,10-21.63,20.42-44,20.42-59.71,0-23.19-29.74-49.06-42.62-59.18-.22,0-.44,0-.67,0H211.26c-12.9,10.14-42.57,36-42.57,59.14,0,15.72,10.38,38.08,20.42,59.71C198.3,196.08,207,214.79,207,227v54.95Z"/><path class="cls-4" d="M257.75,46.26v-7a46.92,46.92,0,0,1-7.81.66,47.33,47.33,0,0,1-6.72-.49v6.83Z"/><path class="cls-5" d="M289.68,53.88c1.89,0,3.42-.91,3.42-2s-1.53-2-3.42-2H211.29c-1.88,0-3.42.92-3.42,2s1.54,2,3.42,2Z"/><path class="cls-4" d="M249.94,36.36c12.75,0,23.12-6.16,23.12-13.74S262.69,8.88,249.94,8.88s-23.12,6.17-23.12,13.74S237.2,36.36,249.94,36.36Z"/><rect class="cls-1" x="422.07" y="483.75" width="18.01" height="242.37"/><rect class="cls-1" x="56.93" y="483.75" width="18.01" height="242.37"/><path class="cls-4" d="M51,729.67h395.1V483.75h42V464.92c0-13.56-18.57-24.59-41.38-24.59H422.19c2-1.52,3.18-3.4,3.18-5.46,0-5-6.81-9-15.17-9H367.41v-23.1h6.36c12.6,0,22.85-6.09,22.85-13.58s-10.25-13.58-22.85-13.58H329.55c-21.07-10.49-31.71-22-33.56-24.15V326.23h15.45c12.6,0,22.85-6.09,22.85-13.58S324,299.08,311.44,299.08H302.2V281.94h-1.55V227c0-11.72,8.58-30.2,17.66-49.77C328.46,155.37,339,132.77,339,116.57c0-24-29.14-49.8-42.9-60.64,1.85-1,3-2.47,3-4.09,0-3.07-4.22-5.58-9.4-5.58H263.73V37.85C272.84,34.92,279,29.19,279,22.62c0-9.53-13.05-17.29-29.1-17.29s-29.1,7.76-29.1,17.29c0,6.83,6.71,12.73,16.4,15.54v8.1h-26c-5.18,0-9.4,2.51-9.4,5.58,0,1.74,1.37,3.27,3.46,4.29-13.87,11-42.64,36.58-42.64,60.44,0,16.2,10.49,38.8,20.64,60.65C192.43,196.79,201,215.27,201,227v72.09H185.56c-12.6,0-22.85,6.09-22.85,13.57s10.25,13.58,22.85,13.58H201v25.22c-1.85,2.12-12.45,13.66-33.54,24.15H123.23c-12.6,0-22.85,6.1-22.85,13.58s10.25,13.58,22.85,13.58h6.36v23.1H86.8c-8.36,0-15.17,4-15.17,9,0,2.06,1.22,3.94,3.18,5.46H50.35c-22.82,0-41.38,11-41.38,24.59v18.83H51ZM15,464.92c0-11.6,15.88-21,35.4-21H236.92V480.2H15Zm108.28-85.76H373.77c9.3,0,16.87,4.49,16.87,10s-7.57,10-16.87,10H260.08v-7.8c0-3.79-5.2-6.88-11.58-6.88s-11.58,3.09-11.58,6.88v7.8H123.23c-9.3,0-16.87-4.5-16.87-10S113.93,379.16,123.23,379.16Zm83.46-26.52.3-.37v-26h83v26l.3.37c.56.69,9.77,11.91,30,23H176.67C196.92,364.55,206.13,353.33,206.69,352.64Zm.3-67.15h89.23v14H207ZM189.11,176.28c-10-21.63-20.42-44-20.42-59.71,0-23.16,29.67-49,42.57-59.14h78.42c.23,0,.45,0,.67,0,12.88,10.12,42.62,36,42.62,59.18,0,15.72-10.38,38.08-20.42,59.71-9.2,19.8-17.88,38.51-17.88,50.71v54.95H207V227C207,214.79,198.3,196.08,189.11,176.28ZM249.94,8.88c12.75,0,23.12,6.17,23.12,13.74s-10.37,13.74-23.12,13.74-23.12-6.16-23.12-13.74S237.2,8.88,249.94,8.88Zm0,31a46.92,46.92,0,0,0,7.81-.66v7H243.22V39.43A47.33,47.33,0,0,0,249.94,39.92ZM302.2,303v-.38h9.24c9.3,0,16.87,4.5,16.87,10s-7.57,10-16.87,10H185.56c-9.3,0-16.87-4.5-16.87-10s7.57-10,16.87-10H201V303ZM482.05,464.92V480.2h-222V443.88H446.65C466.17,443.88,482.05,453.32,482.05,464.92ZM80.91,726.12V483.75h156V492c-7.9,2.48-13.3,7.41-13.3,13.08s5.4,10.59,13.3,13.07v21.42h23.16V518.13c7.89-2.48,13.3-7.4,13.3-13.07S268,494.46,260.08,492v-8.23h156V726.12Zm-24-242.37h18V726.12h-18ZM248.5,388.09c3.09,0,5.6,1.49,5.6,3.32V536H242.9V391.41C242.9,389.58,245.41,388.09,248.5,388.09ZM260.08,496.2c4.44,2.06,7.32,5.26,7.32,8.86s-2.88,6.8-7.32,8.85Zm-23.16,17.71c-4.44-2-7.32-5.25-7.32-8.85s2.88-6.8,7.32-8.86Zm185.15-30.16h18V726.12h-18ZM410.2,440.33H260.08V429.41H410.2c5.07,0,9.19,2.45,9.19,5.46S415.27,440.33,410.2,440.33ZM260.08,425.86v-23.1H361.43v23.1Zm-23.16-23.1v23.1H135.57v-23.1Zm0,26.65v10.92H86.8c-5.07,0-9.19-2.45-9.19-5.46s4.12-5.46,9.19-5.46Z"/><path class="cls-1" d="M260.08,483.75V492c7.89,2.48,13.3,7.41,13.3,13.08s-5.41,10.59-13.3,13.07v21.42H236.92V518.13c-7.9-2.48-13.3-7.4-13.3-13.07s5.4-10.6,13.3-13.08v-8.23h-156V726.12H416.09V483.75Z"/><path class="cls-3" d="M236.92,480.2V443.88H50.35c-19.52,0-35.4,9.44-35.4,21V480.2Z"/><path class="cls-3" d="M440.07,443.88h-180V480.2h222V464.92c0-11.6-15.88-21-35.4-21Z"/><path class="cls-4" d="M267.4,505.06c0-3.6-2.88-6.8-7.32-8.86v17.71C264.52,511.86,267.4,508.66,267.4,505.06Z"/><path class="cls-4" d="M229.6,505.06c0,3.6,2.88,6.8,7.32,8.85V496.2C232.48,498.26,229.6,501.46,229.6,505.06Z"/><path class="cls-4" d="M242.9,536h11.2V391.41c0-1.83-2.51-3.32-5.6-3.32s-5.6,1.49-5.6,3.32Z"/></g></g></svg>