<svg xmlns="http://www.w3.org/2000/svg" viewBox="0 0 65.27 174.41"><defs><style>.cls-1{fill:#333;}</style></defs><title>Beer_Broken</title><g id="Layer_2" data-name="Layer 2"><g id="Layer_1-2" data-name="Layer 1"><path class="cls-1" d="M64.39,138.1l-8.62-11.29-14.15,13L34,132.17,17.12,143.46,9,123.43,0,133.43v32s0,8.95,32.63,8.95,32.64-8.95,32.64-8.95V136.65Z"/><path class="cls-1" d="M9,106.48l8.17,20L34,115.23l7.63,7.61,14.15-13,8.62,11.29.88-1.45V97.54c0-14.75-1.7-20.79-9.19-26.11a56.78,56.78,0,0,1-7.34-6,7.22,7.22,0,0,1-2.07-5.51c.84-15.15-3.11-32.21-4-35.68a.72.72,0,0,1,.47-.85l1.16-.41a2.18,2.18,0,0,0,1.22-3l0-.05a1.75,1.75,0,0,1,.33-2,2.19,2.19,0,0,0,.6-1.93L44,2.41A2.18,2.18,0,0,0,42.16.63,82.36,82.36,0,0,0,32.63,0a83.82,83.82,0,0,0-9.52.64,2.16,2.16,0,0,0-1.88,1.77L18.81,15.92a2.2,2.2,0,0,0,.61,1.93,1.73,1.73,0,0,1,.32,2l0,.05a2.17,2.17,0,0,0,1.22,3l1.16.41a.72.72,0,0,1,.46.85c-.85,3.47-4.8,20.53-4,35.68a7.19,7.19,0,0,1-2.08,5.51,56.52,56.52,0,0,1-7.33,6C1.69,76.75,0,82.79,0,97.54v18.94Z"/></g></g></svg>