<svg xmlns="http://www.w3.org/2000/svg" viewBox="0 0 444 910"><defs><style>.cls-1{fill:#333;}.cls-2{fill:#fff;}</style></defs><title>Beer_Glass</title><g id="Layer_2" data-name="Layer 2"><g id="Layer_1-2" data-name="Layer 1"><path id="body" class="cls-1" d="M279.25,844.47H164.75c-1.8,0-3.27-4.92-3.27-10.94L0,190a12,12,0,0,1,12-12H432a12,12,0,0,1,12,12L282.52,833.53C282.52,839.55,281.05,844.47,279.25,844.47Z"/><rect id="bottom" class="cls-1" x="142" y="864" width="155" height="46" rx="12"/><g id="beer"><path class="cls-2" d="M15.69,156a55,55,0,0,1-.69-8.58c0-31.81,26.24-57.69,58.49-57.69h7v-7c0-21.87,18.05-39.66,40.23-39.66a40.58,40.58,0,0,1,5.62.44l5,.69,2.23-4.54A58.12,58.12,0,0,1,186.21,7a58.9,58.9,0,0,1,43.66,19.4l3.71,4.12,4.86-2.68a43.12,43.12,0,0,1,55.71,12.49l3.22,4.47,5.1-2.08a58.85,58.85,0,0,1,22.27-4.35c32.26,0,58.49,25.88,58.49,57.69a57.14,57.14,0,0,1-2.33,16l-2.46,8.37,8.72.58a42.58,42.58,0,0,1,39.24,35Z"/><path class="cls-1" d="M186.21,14a51.89,51.89,0,0,1,38.46,17.09l7.43,8.23L241.81,34a36.11,36.11,0,0,1,46.66,10.44l6.43,8.94,10.21-4.15a51.81,51.81,0,0,1,19.63-3.84c28.4,0,51.49,22.74,51.49,50.69a50.2,50.2,0,0,1-2.05,14.06l-4.91,16.76L386.7,128A35.79,35.79,0,0,1,417,149H22c0-.53,0-1.06,0-1.58,0-27.95,23.1-50.69,51.49-50.69h14v-14c0-18,14.91-32.66,33.23-32.66a34.8,34.8,0,0,1,4.67.37l10,1.39,4.45-9.09A51.5,51.5,0,0,1,186.21,14m0-14A65.49,65.49,0,0,0,127.3,36.58a47.49,47.49,0,0,0-6.58-.51C94.64,36.07,73.49,57,73.49,82.73,37.32,82.73,8,111.69,8,147.42A64.08,64.08,0,0,0,10,163H434c0-26-20.49-47.25-46.39-48.95a63.67,63.67,0,0,0,2.62-18c0-35.73-29.32-64.69-65.49-64.69a65.86,65.86,0,0,0-24.91,4.87,50.12,50.12,0,0,0-64.77-14.53A65.6,65.6,0,0,0,186.21,0Z"/></g></g></g></svg>