<svg xmlns="http://www.w3.org/2000/svg" viewBox="0 0 512.54 512.54"><defs><style>.cls-1{fill:#333;}</style></defs><title>Beer_Dig</title><g id="Layer_2" data-name="Layer 2"><g id="Layer_1-2" data-name="Layer 1"><path class="cls-1" d="M0,512.54c21.94-3.5,41-12.89,55.46-27.35L80,460.62c14.25-14.51,10.66-33,8-46.59-2.26-11.65-3-17,2-22s10.39-4.24,22-2c13.63,2.64,32.3,6.26,46.85-8.29s10.93-33.21,8.28-46.85c-2.26-11.65-3.05-17,2-22.05s10.4-4.24,22.05-2c13.63,2.65,32.3,6.27,46.85-8.28s10.92-33.22,8.28-46.85c-2.26-11.65-3-17,2-22s10.39-4.24,22-2c13.63,2.64,32.29,6.27,46.84-8.28L359,181.7l88.78,88.77c17.95,17.95,43.36,21.65,56.76,8.25s9.69-38.8-8.26-56.75L290.57,16.31c-17.95-18-43.36-21.65-56.76-8.26s-9.69,38.81,8.26,56.76l88.77,88.77L289.12,195.3c-5,5-10.38,4.23-22,2-13.63-2.65-32.3-6.27-46.85,8.27s-10.92,33.22-8.28,46.85c2.27,11.66,3,17-2,22.05s-10.39,4.24-22,2c-13.63-2.65-32.3-6.27-46.85,8.28s-10.93,33.22-8.28,46.85c2.26,11.65,3,17-2,22.05s-10.39,4.24-22,2c-13.63-2.64-32.3-6.26-46.85,8.29S51,397.09,53.64,410.72c2.26,11.65,3,17-2,22l-24.3,24.3C12.89,471.53,3.49,490.59,0,512.54"/></g></g></svg>