<svg xmlns="http://www.w3.org/2000/svg" viewBox="0 0 545.73 545.73"><defs><style>.cls-1{fill:#333;}</style></defs><title>Beer_Lid</title><g id="Layer_2" data-name="Layer 2"><g id="Layer_1-2" data-name="Layer 1"><path class="cls-1" d="M538,139.51,406.22,7.73c-9.45-9.45-23.86-10.36-32.18-2L312.27,67.46c-25.34,25.34-32,62.94-21.07,98.08L14.79,442c-21.64,21.64-19.25,59.1,5.32,83.67s62,27,83.67,5.32L380.19,254.53c35.14,11,72.74,4.27,98.08-21.07L540,171.69C548.36,163.37,547.45,149,538,139.51ZM49.91,495.82c-8-8-8.81-20.28-1.74-27.35s19.32-6.3,27.35,1.74,8.82,20.28,1.74,27.35S57.94,503.85,49.91,495.82ZM450.31,205c-13.29,13.28-31.85,18.55-50.53,16.27,1.08-13.57-4.07-28.25-15.28-39.46L364,161.23C352.76,150,338.08,144.87,324.51,146c-2.28-18.68,3-37.24,16.27-50.52l51.71-51.71L502,153.24Z"/></g></g></svg>