<svg xmlns="http://www.w3.org/2000/svg" viewBox="0 0 786 752.84"><defs><style>.cls-1{fill:#333;}.cls-2{fill:#fff;}</style></defs><title>Beer_Cross</title><g id="Layer_2" data-name="Layer 2"><g id="Layer_1-2" data-name="Layer 1"><g id="bottle_1" data-name="bottle 1"><path id="cap" class="cls-1" d="M20.11,110.43A4.27,4.27,0,0,1,22,110.1L88.62,31a5,5,0,0,1,.08-2c.51-2.29,0-4-1.47-4.69L59.6,11.85c-1.92-.87-5,.4-7.66,3.14C46.25,20.91,36,31.83,26.22,43.4,16.7,54.7,7.48,66.92,2.51,73.67.23,76.76-.6,80.16.45,82.06l15.06,27.39C16.29,110.87,18,111.24,20.11,110.43Z"/><path id="bottle" class="cls-1" d="M651.62,627.88c91.84-109,56.74-141.61,56.74-141.61L442.65,237.94C385,184,356.58,167.59,314.71,173.16c-19.72,2.62-34.29,2.88-44.25,2.4-9.77-.46-19.68-5.35-27.39-13.23C186.17,104.15,108.32,55,92.37,45.14a4.46,4.46,0,0,1-2.16-3.65L32,110.55a4.13,4.13,0,0,1,3.77,1.81c11.16,15.51,66.79,91.08,128.4,143.67,8.35,7.12,14.13,16.91,15.74,27.07,1.63,10.36,3.13,25.63,3,46.57-.25,44.45,18.63,72.19,76.31,126.1L524.91,704.1s34.88,32.83,126.71-76.22"/></g><g id="bottle_2" data-name="bottle 2"><path id="cap-2" data-name="cap" class="cls-1" d="M693.09,20.68a4.94,4.94,0,0,1,.21,2L765.52,96.1a4.37,4.37,0,0,1,1.93.14c2.18.61,3.9.07,4.6-1.44l13.61-29.2c.94-2-.1-5.38-2.59-8.28C777.71,51.07,767.8,39.78,757.23,29,746.9,18.55,735.67,8.36,729.47,2.86c-2.84-2.52-6.06-3.5-8-2.43L694.3,15.79C692.89,16.58,692.44,18.41,693.09,20.68Z"/><path id="bottle-2" data-name="bottle" class="cls-1" d="M159,681.84C258.6,783,292,746.38,292,746.38L546.12,469c55.18-60.2,72.63-90.12,69.69-135-1.39-21.16-.8-36.75.23-47.38,1-10.44,6.28-20.9,14.31-28.93,59.23-59.26,111-141.17,121.39-157.95a4.4,4.4,0,0,1,3.64-2.21L692.3,33.38a4.76,4.76,0,0,1-2,4c-15.56,11.51-91.46,68.94-145.59,133.38-7.33,8.73-17.08,14.65-27,16.09-10.06,1.46-24.84,2.65-45,1.94-42.75-1.49-70.52,17.95-125.69,78.15L92.94,544.27s-33.59,36.4,66,137.57"/><path class="cls-2" d="M238.46,679.89l-79.33-80.65c-15.83-16.09-16.28-42.9-1-59.56L426.22,247.25a38.71,38.71,0,0,1,56.56-1l79.32,80.65c15.83,16.09,16.28,42.89,1,59.56L295,678.84A38.7,38.7,0,0,1,238.46,679.89Z"/></g></g></g></svg>