<svg xmlns="http://www.w3.org/2000/svg" viewBox="0 0 406.74 763.5"><defs><style>.cls-1{fill:#333;}.cls-2,.cls-3{fill:#fafffe;}.cls-3{stroke:#333;stroke-miterlimit:10;stroke-width:5px;}</style></defs><title>Beer_Glass_2</title><g id="Layer_2" data-name="Layer 2"><g id="Layer_1-2" data-name="Layer 1"><g id="cup"><path id="body" class="cls-1" d="M379.82,74.34H28.24S9.87,230.12,44,366.43,54.47,700.24,54.47,700.24v44.51c0,7.68,5.88,13.91,13.12,13.91H340.47c7.24,0,13.11-6.23,13.11-13.91V700.24S330,502.73,364.08,366.43,379.82,74.34,379.82,74.34Z"/><rect id="bottom" class="cls-2" x="52.24" y="735.5" width="303" height="24" rx="10.84"/><g id="border"><path class="cls-1" d="M340.47,763.5H67.59c-9.75,0-17.68-8.41-17.68-18.75l0-45.12c.24-2,23.11-198.15-10.38-332C5.62,232,23.52,75.31,23.7,73.74l.5-4.24H383.85l.5,4.24c.19,1.57,18.09,158.28-15.85,293.93-33.49,133.81-10.62,330-10.38,332l0,.61v44.51C358.15,755.09,350.22,763.5,340.47,763.5ZM59,700.54v44.21a8.83,8.83,0,0,0,8.55,9.06H340.47a8.83,8.83,0,0,0,8.55-9.06V700.54c-1-9-22.67-202.22,10.64-335.35C390,243.79,378.31,105,375.74,79.19H32.32C29.75,105,18,243.79,48.4,365.19,81.71,498.32,60.08,691.54,59,700.54Z"/></g></g><path id="beer" class="cls-3" d="M363.81,22.38a60.31,60.31,0,0,0-20.7,3.53C334.64,12.23,313.17,2.5,287.94,2.5c-18.4,0-34.83,5.17-45.66,13.28-10.63-6.76-25.51-11-42-11-17.8,0-33.71,4.91-44.43,12.62C145.34,9.7,129.58,4.79,112,4.79c-24.37,0-45.12,9.39-53.37,22.58a63.07,63.07,0,0,0-15.66-1.93C20.6,25.44,2.5,36.56,2.5,50.28c0,10.27,10.14,19.08,24.59,22.87v82.26H206.53V198.6c0,8.23,10.86,14.91,24.25,14.91S255,206.83,255,198.6V155.41h10v20.25c0,8.24,10.86,14.91,24.26,14.91h0c13.39,0,24.25-6.67,24.25-14.91V155.41h8.71v69.18c0,8.24,10.86,14.91,24.25,14.91s24.25-6.67,24.25-14.91V155.41h8.95V70.09c14.45-3.79,24.59-12.6,24.59-22.87C404.24,33.5,386.14,22.38,363.81,22.38Z"/></g></g></svg>