<svg xmlns="http://www.w3.org/2000/svg" viewBox="0 0 719 753"><defs><style>.cls-1{fill:#0c0c0c;}.cls-2{fill:#333;}.cls-3{fill:#08080b;}.cls-4{fill:#999;}</style></defs><title>Beer_Pump2</title><g id="Layer_2" data-name="Layer 2"><g id="beer_pump" data-name="beer pump"><path id="black_bar" data-name="black bar" class="cls-1" d="M719,753V731.36a13.46,13.46,0,0,0-13.61-13.31H13.61A13.46,13.46,0,0,0,0,731.36V753"/><g id="cups"><path class="cls-2" d="M694.09,484.05H570s-6.48,52.9,5.56,99.18,3.7,113.34,3.7,113.34v15.12a4.68,4.68,0,0,0,4.63,4.72H680.2a4.68,4.68,0,0,0,4.63-4.72V696.57s-8.34-67.06,3.7-113.34S694.09,484.05,694.09,484.05Z"/><path class="cls-2" d="M579.25,696.57v.95H684.83v-.95s-8.34-67.06,3.7-113.34c6.66-25.58,7.65-53.16,7.21-72.73H568.34c-.44,19.57.55,47.15,7.21,72.73C587.59,629.51,579.25,696.57,579.25,696.57Z"/><path class="cls-2" d="M680.2,718.05H583.88a6.31,6.31,0,0,1-6.24-6.36V696.37c.09-.67,8.16-67.28-3.66-112.72-12-46.06-5.66-99.27-5.6-99.8l.18-1.44H695.51l.18,1.44c.06.53,6.38,53.74-5.6,99.8-11.82,45.44-3.75,112.05-3.66,112.72v15.32A6.31,6.31,0,0,1,680.2,718.05Zm-99.34-21.37v15a3.05,3.05,0,0,0,3,3.07H680.2a3.05,3.05,0,0,0,3-3.07v-15c-.37-3.06-8-68.67,3.75-113.87,10.73-41.22,6.58-88.34,5.68-97.11H571.43c-.9,8.77-5,55.89,5.68,97.11C588.87,628,581.23,693.62,580.86,696.68Z"/><path class="cls-2" d="M149,484.05H24.91s-6.48,52.9,5.56,99.18,3.7,113.34,3.7,113.34v15.12a4.68,4.68,0,0,0,4.63,4.72h96.32a4.68,4.68,0,0,0,4.63-4.72V696.57s-8.34-67.06,3.7-113.34S149,484.05,149,484.05Z"/><path class="cls-2" d="M34.17,696.57v.95H139.75v-.95s-8.34-67.06,3.7-113.34c6.66-25.58,7.65-53.16,7.21-72.73H23.26c-.44,19.57.55,47.15,7.21,72.73C42.51,629.51,34.17,696.57,34.17,696.57Z"/><path class="cls-2" d="M135.12,718.05H38.8a6.31,6.31,0,0,1-6.24-6.36V696.37c.09-.67,8.16-67.28-3.66-112.72-12-46.06-5.66-99.27-5.6-99.8l.18-1.44H150.43l.18,1.44c.06.53,6.38,53.74-5.6,99.8-11.82,45.44-3.75,112.05-3.66,112.72v15.32A6.31,6.31,0,0,1,135.12,718.05ZM35.78,696.68v15a3.05,3.05,0,0,0,3,3.07h96.32a3.05,3.05,0,0,0,3-3.07v-15c-.37-3.06-8-68.67,3.75-113.87,10.73-41.22,6.58-88.34,5.68-97.11H26.35c-.9,8.77-5.05,55.89,5.68,97.11C43.79,628,36.15,693.62,35.78,696.68Z"/></g><g id="machine"><path class="cls-2" d="M407.84,92H311.16c-24.84,0-45,19.7-45,44V718.05H452.82V136C452.82,111.71,432.68,92,407.84,92Z"/><rect class="cls-3" x="266.18" y="578.94" width="186.64" height="6.91"/><rect class="cls-3" x="266.18" y="341.56" width="186.64" height="6.91"/><polyline class="cls-4" points="500.45 0 509.38 177.7 523.21 177.7 537.03 177.7 545.96 0"/><polyline class="cls-2" points="498.95 0 507.24 135.24 539.17 135.24 548.96 0"/><path class="cls-4" d="M452.83,201.78s-20.58,28.34,0,66.46h40.5V201.78Z"/><rect class="cls-2" x="493.4" y="213.59" width="74.6" height="42.85"/><path class="cls-2" d="M610.39,224.05H568V246h42.39a11,11,0,1,0,0-21.92Z"/><path class="cls-2" d="M602.93,291.76l-31.14-45.83c10-4.12,18.67-2.76,26.94,0l22.87,33.66Z"/><path class="cls-2" d="M502.39,214.2s17.75,12.34,41.63,0V172H502.39Z"/><polyline class="cls-4" points="218.55 0 209.62 177.7 195.79 177.7 181.97 177.7 173.04 0"/><polyline class="cls-2" points="220.05 0 211.76 135.24 179.83 135.24 170.04 0"/><path class="cls-4" d="M266.17,201.78s20.58,28.34,0,66.46h-40.5V201.78Z"/><rect class="cls-2" x="151" y="213.59" width="74.6" height="42.85" transform="translate(376.6 470.02) rotate(180)"/><path class="cls-2" d="M108.61,224.05H151V246H108.61a11,11,0,1,1,0-21.92Z"/><path class="cls-2" d="M116.07,291.76l31.14-45.83c-10-4.12-18.67-2.76-26.94,0L97.4,279.63Z"/><path class="cls-2" d="M216.61,214.2s-17.75,12.34-41.63,0V172h41.63Z"/><path class="cls-4" d="M461.84,665.19H257.16c-13,0-23.6,10.33-23.6,23.07v29.79H485.44V688.26C485.44,675.52,474.87,665.19,461.84,665.19Z"/></g></g></g></svg>