<svg xmlns="http://www.w3.org/2000/svg" viewBox="0 0 669.64 628"><defs><style>.cls-1{fill:#333;}.cls-2{fill:#fff;stroke:#333;stroke-miterlimit:10;stroke-width:11px;}.cls-3{font-size:60px;letter-spacing:0.2em;}.cls-3,.cls-4,.cls-5,.cls-6,.cls-7{font-family:Algerian;}.cls-4{font-size:24px;letter-spacing:-0.1em;}.cls-5{font-size:48px;letter-spacing:0.32em;}.cls-6{font-size:21px;}.cls-7{font-size:12px;letter-spacing:0.2em;}</style></defs><title>Beer_Cap</title><g id="Layer_2" data-name="Layer 2"><g id="Layer_1-2" data-name="Layer 1"><path id="outside_circle" data-name="outside circle" class="cls-1" d="M655.71,314a29,29,0,0,1,12-23.24,4.71,4.71,0,0,0-.75-8.08,29.8,29.8,0,0,1-16.11-20.94,28.36,28.36,0,0,1,7.5-24.83,4.75,4.75,0,0,0-2.24-7.84,30.73,30.73,0,0,1-19.73-18,28,28,0,0,1,2.78-25.69,4.82,4.82,0,0,0-3.66-7.35,31.66,31.66,0,0,1-22.76-14.51,28,28,0,0,1-2-25.74c1.37-3.23-1.25-6.74-5-6.64a32.57,32.57,0,0,1-25.11-10.58,28.31,28.31,0,0,1-6.75-25c.75-3.41-2.48-6.43-6.11-5.74a33.11,33.11,0,0,1-26.69-6.33A28.84,28.84,0,0,1,529.8,59.93c.1-3.48-3.63-5.93-7.08-4.65a33.44,33.44,0,0,1-27.46-1.89A29.64,29.64,0,0,1,479.79,32c-.54-3.44-4.67-5.25-7.84-3.43a33.4,33.4,0,0,1-27.38,2.61,30.56,30.56,0,0,1-19.19-18.51,5.33,5.33,0,0,0-8.35-2.1,33,33,0,0,1-26.49,7,31.5,31.5,0,0,1-22.32-15.1,5.38,5.38,0,0,0-8.62-.71,32.33,32.33,0,0,1-24.78,11.24A32.36,32.36,0,0,1,310,1.83a5.38,5.38,0,0,0-8.62.71,31.5,31.5,0,0,1-22.32,15.1,33,33,0,0,1-26.48-7,5.34,5.34,0,0,0-8.36,2.1,30.56,30.56,0,0,1-19.19,18.51,33.4,33.4,0,0,1-27.38-2.61c-3.16-1.82-7.3,0-7.84,3.43a29.64,29.64,0,0,1-15.47,21.35,33.42,33.42,0,0,1-27.45,1.89c-3.45-1.28-7.19,1.17-7.09,4.65a28.81,28.81,0,0,1-11.28,23.54,33.11,33.11,0,0,1-26.69,6.33c-3.63-.69-6.85,2.33-6.11,5.74a28.28,28.28,0,0,1-6.75,25A32.56,32.56,0,0,1,63.9,131.15a4.92,4.92,0,0,0-5,6.64,28,28,0,0,1-2,25.74A31.68,31.68,0,0,1,34.16,178a4.82,4.82,0,0,0-3.66,7.35,28,28,0,0,1,2.79,25.69,30.77,30.77,0,0,1-19.74,18,4.75,4.75,0,0,0-2.23,7.84,28.32,28.32,0,0,1,7.49,24.83,29.79,29.79,0,0,1-16.1,20.94A4.71,4.71,0,0,0,2,290.76a29,29,0,0,1,12,23.24A29,29,0,0,1,2,337.24a4.71,4.71,0,0,0,.76,8.08,29.79,29.79,0,0,1,16.1,20.94,28.3,28.3,0,0,1-7.5,24.83,4.76,4.76,0,0,0,2.24,7.84,30.74,30.74,0,0,1,19.74,18,28,28,0,0,1-2.79,25.69A4.82,4.82,0,0,0,34.16,450a31.7,31.7,0,0,1,22.77,14.5,28,28,0,0,1,2,25.75,4.92,4.92,0,0,0,5,6.64A32.56,32.56,0,0,1,89,507.43a28.28,28.28,0,0,1,6.75,25c-.74,3.41,2.48,6.43,6.12,5.74a33.09,33.09,0,0,1,26.68,6.33,28.8,28.8,0,0,1,11.28,23.54c-.1,3.48,3.64,5.93,7.09,4.65a33.42,33.42,0,0,1,27.45,1.89A29.64,29.64,0,0,1,189.85,596c.54,3.44,4.68,5.25,7.84,3.43a33.4,33.4,0,0,1,27.38-2.61,30.56,30.56,0,0,1,19.19,18.51,5.35,5.35,0,0,0,8.36,2.1,33,33,0,0,1,26.48-7,31.48,31.48,0,0,1,22.32,15.1,5.38,5.38,0,0,0,8.62.71,32.94,32.94,0,0,1,49.56,0,5.38,5.38,0,0,0,8.62-.71,31.5,31.5,0,0,1,22.32-15.1,33,33,0,0,1,26.49,7,5.34,5.34,0,0,0,8.35-2.1,30.56,30.56,0,0,1,19.19-18.51A33.4,33.4,0,0,1,472,599.39c3.17,1.82,7.3,0,7.84-3.43a29.64,29.64,0,0,1,15.47-21.35,33.45,33.45,0,0,1,27.46-1.89c3.45,1.28,7.18-1.17,7.08-4.65a28.83,28.83,0,0,1,11.28-23.54,33.11,33.11,0,0,1,26.69-6.33c3.63.69,6.86-2.33,6.11-5.74a28.31,28.31,0,0,1,6.75-25,32.57,32.57,0,0,1,25.11-10.58c3.71.1,6.33-3.41,5-6.64a28,28,0,0,1,2-25.75A31.68,31.68,0,0,1,635.48,450a4.82,4.82,0,0,0,3.66-7.35,28,28,0,0,1-2.78-25.69,30.7,30.7,0,0,1,19.73-18,4.75,4.75,0,0,0,2.24-7.84,28.36,28.36,0,0,1-7.5-24.83,29.81,29.81,0,0,1,16.1-20.94,4.71,4.71,0,0,0,.76-8.08A29,29,0,0,1,655.71,314ZM334.82,562.94C188.45,562.94,69.38,451.27,69.38,314S188.45,65.06,334.82,65.06,600.27,176.74,600.27,314,481.19,562.94,334.82,562.94Z"/><ellipse id="Main" class="cls-2" cx="336.64" cy="313" rx="226" ry="212"/><text class="cls-3" transform="translate(220.5 357.23) scale(1 1.25)">BALLA</text><text class="cls-4" transform="translate(243.56 485.01) scale(1 1.25)"><tspan xml:space="preserve">PRODUCT  FOR  MEN</tspan></text><text class="cls-5" transform="translate(178.42 432.65) scale(1 1.5)">ORIGINAL</text><text class="cls-6" transform="translate(463.78 274.4) scale(1 1.25)">2005</text><text class="cls-6" transform="translate(159.79 272.4) scale(1 1.25)">est</text><text class="cls-7" transform="translate(211.44 265.25) scale(1 1.25)">d</text><rect class="cls-1" x="208.64" y="270" width="13" height="2"/><path class="cls-1" d="M313.06,256.8c-1.6-10.81,2.82-26-6.9-33.18,0,0,3.8,12.51,0,22.56s.29,17.07-5.85,16.31S283.23,260,275.26,253,260,230.25,260,230.25s-5,8.16,1.83,17.07A77.72,77.72,0,0,0,278,262.49s-14.34-6.45-22.54-20.86-22.09-14.22-20.95-30.15c.9-12.58,10-17.82,12.07-27.11s4.1-10.62,1.59-10.62-3.64,8.16-8,14-11.38,8.54-9.79,15.17c0,0-2.5-.95-3.64-9.48s7.51-30.53,5.46-31.09-6.83,15.16-11.84,18.58-21.85-1.9-8.42-30c0,0-6.6,1.14-9.56,13.84s-2.05,17.25,1.82,26,16.39,22.94,19.12,33.18,18.22,19.34,23,21.61-26.18-6.77-29.14-22.75-3.87-12-3.87-7-1.6,11.95,3.18,19.15,26.87,21.43,48.05,28.44c19.7,6.53,39.78,9.29,46.15,16.82a4.69,4.69,0,0,1,2.25-1.43,5.83,5.83,0,0,1-.59,0s8.17-2.08,11.38-6.82A20.93,20.93,0,0,1,313.06,256.8Z"/><path class="cls-1" d="M424,245.61c4.78-2.27,20.26-11.37,23-21.61s15.26-24.46,19.13-33.18,4.78-13.28,1.82-26S458.33,151,458.33,151c13.43,28.06-3.42,33.37-8.43,30s-9.79-19.15-11.84-18.58,6.61,22.56,5.47,31.09-3.65,9.48-3.65,9.48c1.6-6.63-5.46-9.29-9.79-15.17s-5.46-14-8-14-.45,1.33,1.6,10.62,11.17,14.53,12.07,27.11c1.13,15.93-12.75,15.74-21,30.15s-22.54,20.86-22.54,20.86a77.72,77.72,0,0,0,16.16-15.17c6.83-8.91,1.82-17.07,1.82-17.07S403,246,395,253s-18.9,8.72-25,9.48-2.05-6.26-5.85-16.31,0-22.56,0-22.56c-9.72,7.2-5.31,22.37-6.9,33.18A20.93,20.93,0,0,1,346.54,272c3.2,4.74,11.37,6.82,11.37,6.82-.33,0-.65,0-1,0a19.79,19.79,0,0,0,2.47.11c.52,0,1,0,1.55-.07,7.54-6.51,26.33-9.32,44.78-15.44,21.18-7,43.26-21.23,48-28.44S457,220.77,457,215.84s-.91-9-3.87,7S419.16,247.89,424,245.61Z"/></g></g></svg>