<svg xmlns="http://www.w3.org/2000/svg" viewBox="0 0 636.83 740"><defs><style>.cls-1{fill:#333;}.cls-2{fill:#fff;}</style></defs><title>Beer_Cup</title><g id="Layer_2" data-name="Layer 2"><g id="Layer_1-2" data-name="Layer 1"><g id="outside"><path class="cls-1" d="M15,729l49.53-55.19a19,19,0,0,0,3.77-6.46l.82-2.36-.27-2.49V171h328V665.06l1,1.46V669l53.85,60Z"/><path class="cls-1" d="M385.83,182V668.44l1,1.46v3.31l5.63,6.28L427,718H39.64l33.07-36.84a30,30,0,0,0,6-10.17l1.65-4.73-.49-4.44V182h306m22-22h-350V662.44c0,.43,0,.86.07,1.28a8,8,0,0,1-1.57,2.75L2,727a7.79,7.79,0,0,0,5.62,13H459a7.79,7.79,0,0,0,5.62-13L408.82,664.8a5.53,5.53,0,0,0-1-3.12V160Z"/></g><g id="beer"><path class="cls-2" d="M63.32,143a55.74,55.74,0,0,1-.49-7.34c0-29,20.72-52.53,46.19-52.53h7v-7c0-19.82,14.07-35.94,31.36-35.94a27.18,27.18,0,0,1,4.26.38l5.36.84,2.15-5C167,18.28,182.88,7,200.58,7c12.95,0,25.42,6.32,34.2,17.34l3.88,4.88,5.3-3.3a29.71,29.71,0,0,1,15.94-4.66c10.63,0,20.74,5.93,27.05,15.84l3.28,5.17,5.56-2.56a41.06,41.06,0,0,1,17.3-3.85c25.47,0,46.19,23.57,46.19,52.54a59.38,59.38,0,0,1-1.9,14.8l-2.1,8.11,8.35.63c15.41,1.14,27.88,14.25,30.63,31.06Z"/><path class="cls-1" d="M200.58,14c11,0,21.17,5.22,28.72,14.7l7.77,9.76,10.59-6.6a22.8,22.8,0,0,1,12.24-3.6c8.35,0,16.05,4.59,21.14,12.6l6.56,10.33,11.12-5.13a34.14,34.14,0,0,1,14.37-3.2c21.61,0,39.19,20.43,39.19,45.54a52,52,0,0,1-1.68,13l-4.19,16.22,16.7,1.25c9.62.71,17.79,7.51,21.89,17.08H69.83v-.34c0-25.1,17.58-45.53,39.19-45.53h14v-14c0-16,10.93-28.94,24.36-28.94a21,21,0,0,1,3.18.3l10.71,1.67,4.31-9.94C172.3,23.66,185.71,14,200.58,14m0-14c-21.08,0-39.25,13.76-47.85,33.66a33.78,33.78,0,0,0-5.35-.47C126.2,33.19,109,52.42,109,76.13c-29.38,0-53.19,26.65-53.19,59.53A66.05,66.05,0,0,0,57.45,150H401.83c0-23.94-16.64-43.48-37.68-45a66.15,66.15,0,0,0,2.13-16.56c0-32.88-23.81-59.54-53.19-59.54a48.07,48.07,0,0,0-20.23,4.49c-7.34-11.54-19.35-19.09-33-19.09A36.94,36.94,0,0,0,240.25,20C230.51,7.75,216.37,0,200.58,0Z"/></g><g id="cup"><g id="holder"><path class="cls-1" d="M402.1,628l-27.83-36.13,197.13-98c7.85-3.9,12.53-10.65,12.53-18.07V287c0-11.72-11.87-21.25-26.46-21.25H388.19v-42.5H557.47c43.76,0,79.36,28.6,79.36,63.75v188.8c0,22.24-14.05,42.5-37.59,54.2Z"/></g><g id="body"><rect class="cls-2" x="80.33" y="178.5" width="304" height="490"/><path class="cls-1" d="M376.83,186V661h-289V186h289m10.68-15H77.14a4.33,4.33,0,0,0-4.31,4.32V671.68A4.33,4.33,0,0,0,77.14,676H387.51a4.33,4.33,0,0,0,4.32-4.32V175.32a4.33,4.33,0,0,0-4.32-4.32Z"/></g></g></g></g></svg>