<svg xmlns="http://www.w3.org/2000/svg" viewBox="0 0 873.27 937"><defs><style>.cls-1{fill:#333;}.cls-2{fill:#fff;}</style></defs><title>Keg_Beer</title><g id="Layer_2" data-name="Layer 2"><g id="Layer_1-2" data-name="Layer 1"><path id="bottom" class="cls-1" d="M8.85,673.69A1531.17,1531.17,0,0,0,44.11,874.28h.58c9.73,35,150.09,62.72,321.87,62.72s312.14-27.75,321.87-62.72H689a1533.93,1533.93,0,0,0,33.47-184.81c.79-6.64-6.26-11.45-12.55-8.7-79.24,34.66-244,45.12-343.38,45.12C260.74,725.89,80.72,714,8.85,673.69Z"/><g id="top"><path class="cls-1" d="M366.56,345.52c98.89,0,191.72-6.66,261.38-18.76,50.51-8.77,76.28-18.34,88.4-25.32a6.76,6.76,0,0,0,3.67-6.82,1108.05,1108.05,0,0,0-31-138.84h-.59C678.7,126.36,538.34,103,366.56,103S54.42,126.36,44.69,155.78h-.58a1106,1106,0,0,0-31,138.85,6.71,6.71,0,0,0,3.67,6.81c12.12,7,37.88,16.55,88.39,25.32C174.84,338.86,267.67,345.52,366.56,345.52Z"/><path class="cls-2" d="M366.56,259.86c98.89,0,191.72-6.66,261.38-18.76,50.51-8.78,76.28-18.35,88.4-25.33A6.74,6.74,0,0,0,720,209,1108.2,1108.2,0,0,0,689,70.11h-.59C678.7,40.7,538.34,17.36,366.56,17.36S54.42,40.7,44.69,70.11h-.58A1106.83,1106.83,0,0,0,13.12,209a6.72,6.72,0,0,0,3.67,6.82c12.12,7,37.88,16.54,88.39,25.32C174.84,253.2,267.67,259.86,366.56,259.86Z"/><path class="cls-1" d="M366.56,219.48c89.4,0,173.32-6,236.29-17,45.67-7.94,69-16.6,79.91-22.92a6.08,6.08,0,0,0,3.32-6.16,1001.39,1001.39,0,0,0-28-125.68h-.53C648.74,21.12,521.85,0,366.56,0S84.38,21.12,75.59,47.74h-.53A1003.56,1003.56,0,0,0,47,173.42a6.11,6.11,0,0,0,3.32,6.17c11,6.31,34.25,15,79.91,22.91C193.25,213.45,277.16,219.48,366.56,219.48Z"/></g><path id="tube" class="cls-1" d="M837.94,496V484.79h20.61V467.68H809.47a8.69,8.69,0,0,0-8.83,8.55h0a8.69,8.69,0,0,0,8.83,8.56h10.8v10.3h-31.4a8.69,8.69,0,0,1-8.83-8.55V448.63a8.7,8.7,0,0,0-8.84-8.56H739.86a8.67,8.67,0,0,1-8.79-8.12q-1.83-36.56-5.35-73A8.86,8.86,0,0,0,713.15,352c-77.92,35.81-245.86,46.56-346.59,46.56S97.88,387.81,20,352A8.84,8.84,0,0,0,7.4,358.91,1529.83,1529.83,0,0,0,5.13,634.39H7.3c0,5.3,18,24.17,97.89,40.67,69.65,14.39,162.48,22.32,261.37,22.32s191.72-7.93,261.38-22.32c79.9-16.5,97.88-35.37,97.88-40.67H728c1.3-15.87,2.28-31.75,3.06-47.64a8.7,8.7,0,0,1,8.81-8.14H771.2a8.7,8.7,0,0,0,8.84-8.55V532.15a8.69,8.69,0,0,1,8.83-8.55H829.1a14.5,14.5,0,0,1,14.73,14.25v16.52h29.44V537.86C873.27,517.2,858.08,499.92,837.94,496Z"/></g></g></svg>