<svg xmlns="http://www.w3.org/2000/svg" viewBox="0 0 791.36 877.32"><defs><style>.cls-1{fill:#333;}.cls-2{fill:#fff;}</style></defs><title>Men_Shade</title><g id="Layer_2" data-name="Layer 2"><g id="Men_holding_beer" data-name="Men holding beer"><path id="men_shade" data-name="men shade" class="cls-1" d="M711.34,446.16v-.66h-9.51l-1.65,0-1.62,0H670.88V442H647.73a153.88,153.88,0,0,0,9.47-27.14,37,37,0,0,0,28.75-36V349a36.93,36.93,0,0,0-20.72-33.16V291.34A158.35,158.35,0,0,0,509.88,133.17h-3.57c-66.79.31-124,42.83-146.84,102.43V85.77A44.47,44.47,0,0,0,321.64,18c-.55,0-1.09,0-1.63,0a54.75,54.75,0,0,0-67-11.2A54.54,54.54,0,0,0,206.2,8a53.66,53.66,0,0,0-65.15,12.84,44.5,44.5,0,0,0-39.73,58.76,61.8,61.8,0,0,0-29.25,26.09H46.23A46.21,46.21,0,0,0,6.87,176.09a46.15,46.15,0,0,0,0,48.45,46.15,46.15,0,0,0,0,48.45,46.21,46.21,0,0,0,29.19,69.32V536.68a91.29,91.29,0,0,0,91.19,91.18H305v18.2l-3.52,2V877.32H714.85v-19.2a91.44,91.44,0,0,0,74.7-73.55h1.81V536.66A91.32,91.32,0,0,0,711.34,446.16ZM345.46,442v3.52h-127V414.59H333.74A45.53,45.53,0,0,0,348.83,412a36.72,36.72,0,0,0,8,2.83A153,153,0,0,0,366.33,442Z"/><path id="outside" class="cls-2" d="M136.22,398.59a23.67,23.67,0,0,1-6.65-46.38V55.68h209.9V351.56a23.66,23.66,0,0,1-3.73,47Z"/><g id="holder"><path class="cls-2" d="M170.91,330.7H117A40.21,40.21,0,0,1,76.8,290.54V121.68A40.21,40.21,0,0,1,117,81.52h52.76v26.39H117a13.79,13.79,0,0,0-13.78,13.77V290.54A13.79,13.79,0,0,0,117,304.32h53.94Z"/></g><path id="cup" class="cls-1" d="M336.74,361.3h-3.31V65.72H137.61V361.3h-.39a16.63,16.63,0,1,0,0,33.25H336.74a16.63,16.63,0,0,0,0-33.25Z"/><path id="beer" class="cls-2" d="M323.64,30a22.34,22.34,0,0,0-11.5,3.19,32.79,32.79,0,0,0-56-9.15,32.41,32.41,0,0,0-48,1.47,31.74,31.74,0,0,0-54,9,22.46,22.46,0,0,0-17.49,41.37v74.33h99.66v39a13.48,13.48,0,0,0,27,0v-39h5.52v18.3A13.48,13.48,0,0,0,282.21,182h0a13.48,13.48,0,0,0,13.47-13.48v-18.3h4.84v62.52a13.47,13.47,0,1,0,26.94,0V150.17h5V73.08A22.46,22.46,0,0,0,323.64,30Z"/></g></g></svg>